<svg xmlns="http://www.w3.org/2000/svg" viewBox="0 0 520 120" fill="none" role="img" aria-label="BabyRock Direct">
  <g transform="translate(8,6) scale(0.85)">
    <path d="M22 78c0-18 10-34 26-42 6-3 12-5 18-5 10 0 18 3 26 10 12 10 18 26 18 42 0 6-1 12-4 18H26c-3-6-4-12-4-18z" fill="#161412"/>
    <path d="M26 96h76c2 0 4 2 4 4v2H22v-2c0-2 2-4 4-4z" fill="#161412"/>
    <path d="M40 48h40c8 0 14 6 14 14v16c0 8-6 14-14 14H62l-12 12v-12H40c-8 0-14-6-14-14V62c0-8 6-14 14-14z" fill="#3c9a4e"/>
    <circle cx="50" cy="70" r="4.5" fill="#f4efe6"/>
    <circle cx="64" cy="70" r="4.5" fill="#f4efe6"/>
    <circle cx="78" cy="70" r="4.5" fill="#f4efe6"/>
  </g>
  <text x="130" y="72" font-family="Inter, system-ui, sans-serif" font-size="28" font-weight="700" letter-spacing="3.2" fill="#161412">BABYROCK</text>
  <rect x="318" y="48" width="3" height="28" rx="1.5" fill="#3c9a4e"/>
  <text x="334" y="72" font-family="Inter, system-ui, sans-serif" font-size="28" font-weight="500" letter-spacing="2.4" fill="#161412">DIRECT</text>
</svg>
